<?xml version="1.0" encoding="UTF-8"?>
<!DOCTYPE svg PUBLIC "-//W3C//DTD SVG 1.1//EN" "http://www.w3.org/Graphics/SVG/1.1/DTD/svg11.dtd">
<!-- Creator: CorelDRAW -->
<svg xmlns="http://www.w3.org/2000/svg" xml:space="preserve" width="71.6003mm" height="59.4048mm" version="1.1" style="shape-rendering:geometricPrecision; text-rendering:geometricPrecision; image-rendering:optimizeQuality; fill-rule:evenodd; clip-rule:evenodd"
viewBox="0 0 871.84 723.34"
 xmlns:xlink="http://www.w3.org/1999/xlink"
 xmlns:xodm="http://www.corel.com/coreldraw/odm/2003">
 <defs>
  <style type="text/css">
   <![CDATA[
    .fil0 {fill:#FEFEFE;fill-rule:nonzero}
    .fil1 {fill:#F5CF33;fill-rule:nonzero}
   ]]>
  </style>
 </defs>
 <g id="Layer_x0020_1">
  <metadata id="CorelCorpID_0Corel-Layer"/>
  <path class="fil0" d="M56.42 449.35l174.29 251.19 0 19.32 -56.42 0 -117.87 -170.04 0 170.04 -56.42 0 0 -270.51 56.42 0zm117.87 0l56.42 0 0 202.5 -56.42 -40.58 0 -161.92z"/>
  <path id="_1" class="fil0" d="M388.77 445.87c19.06,0 36.84,3.67 53.33,11.01 16.49,7.34 30.79,17.26 42.9,29.76 12.11,12.49 21.58,27.18 28.41,44.05 6.83,16.87 10.24,34.84 10.24,53.91 0,16.23 -2.45,31.69 -7.34,46.37 -4.9,14.68 -11.85,27.95 -20.87,39.8 -9.02,11.85 -19.77,21.96 -32.27,30.34 -12.5,8.37 -26.21,14.36 -41.16,17.97l-27.05 -45.99c10.82,-0.77 20.67,-3.67 29.56,-8.7 8.89,-5.02 16.55,-11.46 22.99,-19.32 6.44,-7.86 11.46,-17 15.07,-27.44 3.61,-10.43 5.41,-21.45 5.41,-33.04 0,-12.11 -2,-23.57 -5.99,-34.39 -3.99,-10.82 -9.47,-20.22 -16.42,-28.21 -6.96,-7.99 -15.26,-14.3 -24.93,-18.94 -9.66,-4.64 -20.29,-6.96 -31.88,-6.96 -11.59,0 -22.22,2.32 -31.88,6.96 -9.66,4.64 -18.04,10.95 -25.12,18.94 -7.09,7.99 -12.62,17.39 -16.62,28.21 -3.99,10.82 -5.99,22.29 -5.99,34.39 0,12.11 2,23.57 5.99,34.39 3.99,10.82 9.53,20.22 16.62,28.21 7.08,7.99 15.46,14.3 25.12,18.94 9.66,4.64 20.29,6.96 31.88,6.96l0 50.24c-19.06,0 -36.84,-3.61 -53.33,-10.82 -16.49,-7.21 -30.79,-17.13 -42.9,-29.76 -12.11,-12.62 -21.58,-27.37 -28.4,-44.25 -6.83,-16.87 -10.24,-34.84 -10.24,-53.91 0,-19.06 3.41,-37.03 10.24,-53.91 6.83,-16.88 16.29,-31.56 28.4,-44.05 12.11,-12.5 26.41,-22.41 42.9,-29.76 16.49,-7.34 34.27,-11.01 53.33,-11.01z"/>
  <path id="_2" class="fil0" d="M816.57 449.35l55.26 0 -66.08 270.51 -70.72 0 -38.64 -164.63 -37.87 164.63 -56.42 0 66.86 -270.51 0 0 55.26 0 0.39 0 45.99 222.98 45.99 -222.98zm-239.99 0l43.28 177.38 -42.51 53.72 -56.03 -231.1 55.26 0z"/>
  <path class="fil1" d="M420.93 179.29c0.8,6 1.4,11.99 1.8,17.99 0.4,6 0.6,11.99 0.6,17.99 0,29.58 -5.3,57.46 -15.89,83.65 -10.59,26.18 -25.18,48.97 -43.77,68.36 -18.59,19.39 -40.67,34.68 -66.26,45.87 -25.58,11.19 -53.17,16.79 -82.75,16.79 -29.58,0 -57.46,-5.6 -83.65,-16.79 -26.18,-11.19 -48.97,-26.48 -68.36,-45.87 -19.39,-19.39 -34.68,-42.17 -45.87,-68.36 -11.19,-26.18 -16.79,-54.06 -16.79,-83.65 0,-29.58 5.6,-57.46 16.79,-83.65 11.19,-26.18 26.48,-48.97 45.87,-68.36 19.39,-19.39 42.17,-34.68 68.36,-45.87 26.18,-11.19 54.07,-16.79 83.65,-16.79 38.78,0 74.05,9.29 105.83,27.88 31.78,18.59 57.26,43.07 76.45,73.45l-70.15 44.97c-10.79,-21.59 -26.08,-38.87 -45.87,-51.87 -19.79,-12.99 -41.87,-19.49 -66.26,-19.49 -17.99,0 -34.78,3.7 -50.37,11.09 -15.59,7.4 -29.18,17.39 -40.77,29.98 -11.59,12.59 -20.79,27.38 -27.58,44.37 -6.8,16.99 -10.19,35.08 -10.19,54.27 0,19.19 3.4,37.28 10.19,54.27 6.8,16.99 15.99,31.78 27.58,44.37 11.59,12.59 25.18,22.58 40.77,29.98 15.59,7.39 32.38,11.09 50.37,11.09 14.39,0 27.98,-2.4 40.77,-7.2 12.79,-4.8 24.18,-11.59 34.18,-20.39 9.99,-8.8 18.69,-19.09 26.08,-30.88 7.39,-11.79 12.89,-24.88 16.49,-39.27l-113.93 0 -38.38 -77.95 241.05 0z"/>
  <path id="_1_0" class="fil1" d="M662.57 0c29.58,0 57.16,5.7 82.75,17.09 25.58,11.39 47.77,26.78 66.56,46.17 18.79,19.39 33.48,42.17 44.07,68.36 10.59,26.18 15.89,54.06 15.89,83.65 0,25.18 -3.8,49.17 -11.39,71.95 -7.6,22.79 -18.39,43.37 -32.38,61.76 -13.99,18.39 -30.68,34.08 -50.07,47.07 -19.39,12.99 -40.67,22.29 -63.86,27.88l-41.97 -71.35c16.79,-1.2 32.08,-5.7 45.87,-13.49 13.79,-7.79 25.68,-17.79 35.68,-29.98 9.99,-12.19 17.79,-26.38 23.38,-42.57 5.6,-16.19 8.39,-33.28 8.39,-51.27 0,-18.79 -3.1,-36.58 -9.29,-53.37 -6.2,-16.79 -14.69,-31.38 -25.48,-43.77 -10.79,-12.39 -23.69,-22.19 -38.68,-29.38 -14.99,-7.2 -31.48,-10.79 -49.47,-10.79 -17.99,0 -34.48,3.6 -49.47,10.79 -14.99,7.2 -27.98,16.99 -38.97,29.38 -10.99,12.39 -19.59,26.98 -25.78,43.77 -6.2,16.79 -9.29,34.58 -9.29,53.37 0,18.79 3.1,36.58 9.29,53.37 6.2,16.79 14.79,31.38 25.78,43.77 10.99,12.39 23.98,22.19 38.97,29.38 14.99,7.2 31.48,10.79 49.47,10.79l0 77.95c-29.58,0 -57.16,-5.6 -82.75,-16.79 -25.58,-11.19 -47.77,-26.58 -66.56,-46.17 -18.79,-19.59 -33.48,-42.47 -44.07,-68.66 -10.59,-26.18 -15.89,-54.06 -15.89,-83.65 0,-29.58 5.3,-57.46 15.89,-83.65 10.59,-26.18 25.28,-48.97 44.07,-68.36 18.79,-19.39 40.97,-34.78 66.56,-46.17 25.58,-11.39 53.17,-17.09 82.75,-17.09z"/>
 </g>
</svg>
