<svg width="512" height="512" viewBox="0 0 512 512" fill="none" xmlns="http://www.w3.org/2000/svg">
<rect width="512" height="512" fill="black"/>
<path d="M203.889 104.889L158.222 150.556L203.889 196.222L186.111 214L122.667 150.556L186.111 87.1111L203.889 104.889Z" fill="#FFD700"/>
<path d="M308.111 104.889L353.778 150.556L308.111 196.222L325.889 214L389.333 150.556L325.889 87.1111L308.111 104.889Z" fill="#FFD700"/>
<path d="M256 308.111L210.333 262.444L256 216.778L273.778 199L210.333 262.444L164.667 216.778L146.889 234.556L210.333 298L146.889 361.444L164.667 380.222L210.333 316.778L256 362.444L273.778 380.222L210.333 316.778L273.778 253.333L256 235.556L210.333 281.222L256 326.889L301.667 281.222L283.889 263.444L256 290.222L210.333 244.556L256 198.889L301.667 244.556L320.444 226.778L256 163.333L191.556 227.778L256 292.222L320.444 227.778L338.222 245.556L273.778 310L338.222 374.444L320.444 392.222L256 327.778L191.556 392.222L173.778 374.444L238.222 310L173.778 245.556L191.556 227.778L256 292.222L301.667 246.667L256 201.111L210.333 246.667L192.556 228.889L256 165.444L319.444 228.889L256 292.222L192.556 228.889L174.778 246.667L239.222 311.111L174.778 375.556L192.556 393.333L256 329.889L319.444 393.333L337.222 375.556L272.778 311.111L337.222 246.667L319.444 228.889L256 292.222L256 308.111Z" fill="white"/>
</svg>
